<?xml version="1.0" encoding="utf-8"?>
<!-- Generator: Adobe Illustrator 15.0.2, SVG Export Plug-In . SVG Version: 6.00 Build 0)  -->
<!DOCTYPE svg PUBLIC "-//W3C//DTD SVG 1.1//EN" "http://www.w3.org/Graphics/SVG/1.1/DTD/svg11.dtd">
<svg version="1.1" id="Layer_2" xmlns="http://www.w3.org/2000/svg" xmlns:xlink="http://www.w3.org/1999/xlink" x="0px" y="0px"
	 width="341px" height="466.5px" viewBox="0 0 341 466.5" enable-background="new 0 0 341 466.5" xml:space="preserve">
<rect x="5.334" y="3.93" width="330.332" height="432.141"/>
<path fill="#01529C" d="M27.739,285.264v41.646h285.502V26.662H181.762V165.93c0,64.667-50.333,119.333-109,119.333
	C67.428,285.264,27.739,285.264,27.739,285.264z"/>
<path fill="#FFFFFF" d="M43.847,212.189c13.248,0,22.8-3.458,34.142-8.743c17.154-7.994,26.147-22.65,26.147-22.65L85.15,169.471
	c0,0-7.827,9.493-18.486,14.656c-10.192,4.937-18.653,5.329-21.65,5.329H27.739V26.662h131.356v134.601
	c2.666,62.334-42.334,101.101-93.391,101.101c-4.576,0-37.966,0-37.966,0V212.19L43.847,212.189L43.847,212.189z M93.113,67.343
	c-16.169,0-29.276,13.108-29.276,29.277s13.107,29.276,29.276,29.276c16.17,0,29.277-13.107,29.277-29.276
	S109.283,67.343,93.113,67.343z"/>
<path fill="#FFFFFF" d="M106.562,390.242c0,2.246-0.749,3.135-2.676,3.135H73.393c-1.819,0-3.21-0.141-3.21-2.279V362.53
	c0-1.498,0.642-2.781,2.247-2.781h31.671c1.712,0,2.461,1.392,2.461,2.996V390.242z M88.8,370.232c-3.014,0-5.457,2.442-5.457,5.457
	c0,3.014,2.443,5.457,5.457,5.457c3.014,0,5.457-2.443,5.457-5.457C94.257,372.675,91.813,370.232,88.8,370.232z"/>
<path fill="#FFFFFF" d="M151.004,390.242c0,2.246-0.749,3.135-2.675,3.135h-30.494c-1.818,0-3.209-0.141-3.209-2.279V362.53
	c0-1.498,0.642-2.781,2.246-2.781h31.671c1.712,0,2.461,1.392,2.461,2.996V390.242z M133.242,370.232
	c-3.014,0-5.457,2.442-5.457,5.457c0,3.014,2.443,5.457,5.457,5.457c3.015,0,5.458-2.443,5.458-5.457
	C138.7,372.675,136.257,370.232,133.242,370.232z"/>
<path fill="#FFFFFF" d="M180.424,359.74c1.928,0,2.737-0.896,2.737-3.145V346.57c0-1.498,0.702-2.834,2.307-2.834h7.71
	c1.713,0,2.27,1.338,2.27,2.943v43.563c0,2.246-0.342,3.135-2.27,3.135h-31.833c-1.818,0-2.276-0.141-2.276-2.279v-28.568
	c0-1.497,0.672-2.788,2.276-2.788L180.424,359.74L180.424,359.74z M177.686,370.232c-3.015,0-5.457,2.442-5.457,5.457
	c0,3.014,2.442,5.457,5.457,5.457c3.014,0,5.457-2.443,5.457-5.457C183.143,372.675,180.698,370.232,177.686,370.232z"/>
<path fill="#FFFFFF" d="M35.674,403.559c3.507,0,7.755-2.907,9.046-4.879c1.238-1.891,1-3.125,0-3.875
	c-0.828-0.621-2.568-1.166-3.786,0.488c-1.363,1.85-5.078,3.561-7.026,3.561c0,0-1.801,0-3.611,0s-3.476-0.407-3.476-2.547v-33.777
	c0-1.497,0.642-2.78,2.247-2.78h29.424c1.712,0,2.461,1.392,2.461,2.996v27.498c0.643,11.875-2.386,15.547-6.42,19.563
	c-4.238,4.218-10.125,7.402-15.741,7.402c-3.993,0-8.761,0.234-8.761,0.234c-1.819,0-3.21-0.142-3.21-2.281v-8.834
	c0-1.498,0.642-2.769,2.247-2.769H35.674L35.674,403.559z M43.833,371.41c-3.014,0-5.457,2.443-5.457,5.457s2.443,5.457,5.457,5.457
	s5.457-2.443,5.457-5.457S46.847,371.41,43.833,371.41z"/>
<path fill="#FFFFFF" d="M215.73,378.906c0,1.332,0.74,2.279,1.74,2.279h2.332c0.791,0,2.037-0.59,2.037-2.279v-16.643
	c0-0.834,0.838-2.439,1.439-2.439h9.147c1.036,0,1.347,1.504,1.347,2.439v16.643c0,1.416,1.028,2.279,1.903,2.279h2.792
	c0.75,0,1.856-0.8,1.856-2.279v-16.643c0-0.994,0.719-2.439,1.518-2.439h9.417c0.838,0,1.068,1.43,1.068,2.439v27.979
	c0,2.246-0.459,3.135-3.044,3.135H206.57c-2.439,0-3.057-0.141-3.057-2.279v-28.834c0-1.135,0.695-2.438,1.58-2.438h9.25
	c1.25,0,1.387,1.772,1.387,2.438V378.906z"/>
<path fill="#FFFFFF" d="M303.075,393.377c-1.897,0-2.281-0.889-2.281-3.135v-44.207c0-1.355,1.481-2.439,2.281-2.439h7.853
	c1.334,0,1.902,1.432,1.902,2.439v44.207c0,2.246-0.068,3.135-1.902,3.135H303.075z"/>
<path fill="#FFFFFF" d="M283.075,393.377c-1.897,0-2.281-0.889-2.281-3.135v-44.207c0-1.355,1.481-2.439,2.281-2.439h7.853
	c1.334,0,1.902,1.432,1.902,2.439v44.207c0,2.246-0.068,3.135-1.902,3.135H283.075z"/>
<path fill="#FFFFFF" d="M262.742,393.377c-1.896,0-2.281-0.889-2.281-3.135v-28.041c0-1.355,1.482-2.439,2.281-2.439h7.854
	c1.334,0,1.901,1.432,1.901,2.439v28.041c0,2.246-0.067,3.135-1.901,3.135H262.742z"/>
<path fill="#FFFFFF" d="M262.741,356.762c-1.897,0-2.281-0.889-2.281-3.135v-7.592c0-1.355,1.481-2.439,2.281-2.439h7.853
	c1.334,0,1.902,1.432,1.902,2.439v7.592c0,2.246-0.068,3.135-1.902,3.135H262.741z"/>
<text transform="matrix(1 0 0 1 314.333 462.334)" display="none" font-family="'CenturyGothic-Bold'" font-size="29">®</text>
<g>
	<path d="M335.913,451.643c0,1.936-0.483,3.736-1.451,5.402s-2.289,2.983-3.965,3.951c-1.676,0.967-3.486,1.451-5.431,1.451
		c-1.936,0-3.743-0.484-5.423-1.451c-1.681-0.968-3.005-2.285-3.973-3.951s-1.451-3.471-1.451-5.416
		c0-1.936,0.483-3.738,1.451-5.409s2.289-2.99,3.965-3.958c1.676-0.967,3.486-1.451,5.431-1.451s3.755,0.484,5.431,1.451
		c1.676,0.968,2.997,2.287,3.965,3.958S335.913,449.698,335.913,451.643z M333.676,451.672c0-2.398-0.838-4.436-2.514-6.11
		c-1.676-1.676-3.698-2.514-6.067-2.514c-2.389,0-4.425,0.835-6.11,2.507c-1.685,1.67-2.527,3.686-2.527,6.046
		c0,1.529,0.38,2.95,1.14,4.263c0.76,1.312,1.811,2.35,3.15,3.115c1.341,0.764,2.78,1.146,4.319,1.146
		c1.529,0,2.964-0.38,4.305-1.14c1.341-0.761,2.394-1.794,3.157-3.102C333.294,454.576,333.676,453.172,333.676,451.672z
		 M320.577,445.725h5.254c1.104,0,1.916,0.122,2.436,0.367c0.52,0.246,0.937,0.633,1.253,1.162c0.316,0.528,0.475,1.166,0.475,1.911
		c0,0.632-0.097,1.149-0.29,1.551s-0.56,0.795-1.098,1.183c0.435,0.245,0.731,0.521,0.893,0.828c0.16,0.307,0.259,0.848,0.297,1.621
		c0.066,1.473,0.13,2.329,0.191,2.57c0.062,0.24,0.229,0.469,0.502,0.687h-2.973c-0.133-0.321-0.218-0.59-0.256-0.808
		c-0.037-0.217-0.061-0.59-0.07-1.118c-0.028-1.048-0.085-1.694-0.17-1.94c-0.085-0.245-0.233-0.43-0.446-0.552
		c-0.212-0.122-0.64-0.185-1.281-0.185h-2.11v4.603h-2.605V445.725z M323.183,448.004v2.818h2.182c0.84,0,1.396-0.113,1.67-0.34
		c0.274-0.227,0.411-0.59,0.411-1.091s-0.135-0.856-0.403-1.069c-0.27-0.212-0.824-0.318-1.664-0.318H323.183z"/>
</g>
</svg>
